<?xml version="1.0" encoding="UTF-8" standalone="no"?>
<svg
   xmlns:dc="http://purl.org/dc/elements/1.1/"
   xmlns:cc="http://creativecommons.org/ns#"
   xmlns:rdf="http://www.w3.org/1999/02/22-rdf-syntax-ns#"
   xmlns:svg="http://www.w3.org/2000/svg"
   xmlns="http://www.w3.org/2000/svg"
   xmlns:sodipodi="http://sodipodi.sourceforge.net/DTD/sodipodi-0.dtd"
   xmlns:inkscape="http://www.inkscape.org/namespaces/inkscape"
   inkscape:version="1.0 (4035a4fb49, 2020-05-01)"
   sodipodi:docname="ghostly.svg"
   xml:space="preserve"
   enable-background="new 0 0 841.89 1190.55"
   viewBox="0 0 456.42788 446.05998"
   height="446.06"
   width="456.42789"
   y="0px"
   x="0px"
   id="Layer_1"
   version="1.1"><metadata
   id="metadata235"><rdf:RDF><cc:Work
       rdf:about=""><dc:format>image/svg+xml</dc:format><dc:type
         rdf:resource="http://purl.org/dc/dcmitype/StillImage" /><dc:title></dc:title></cc:Work></rdf:RDF></metadata><defs
   id="defs233" /><sodipodi:namedview
   inkscape:current-layer="Layer_1"
   inkscape:window-maximized="1"
   inkscape:window-y="-8"
   inkscape:window-x="1912"
   inkscape:cy="188.07402"
   inkscape:cx="215.94189"
   inkscape:zoom="0.71395571"
   fit-margin-bottom="10"
   fit-margin-right="10"
   fit-margin-left="10"
   fit-margin-top="10"
   showgrid="false"
   id="namedview231"
   inkscape:window-height="1017"
   inkscape:window-width="1920"
   inkscape:pageshadow="2"
   inkscape:pageopacity="0"
   guidetolerance="10"
   gridtolerance="10"
   objecttolerance="10"
   borderopacity="1"
   bordercolor="#666666"
   pagecolor="#ffffff" />
<g
   transform="translate(-205.0031,-407.201)"
   id="g228">
	<path
   id="path2"
   d="m 428.081,417.351 c 3.12,-0.2 7.08,-0.2 10.2,0 -3.4,0 -6.801,0 -10.2,0 z"
   fill="#76adb9"
   clip-rule="evenodd"
   fill-rule="evenodd" />
	<path
   id="path4"
   d="m 425.321,417.47 c 0.402,-0.277 1.317,-0.042 1.92,-0.12 -0.403,0.278 -1.318,0.043 -1.92,0.12 z"
   fill="#76adb9"
   clip-rule="evenodd"
   fill-rule="evenodd" />
	<path
   id="path6"
   d="m 439.121,417.351 c 0.602,0.078 1.518,-0.157 1.92,0.12 -0.603,-0.078 -1.518,0.157 -1.92,-0.12 z"
   fill="#76adb9"
   clip-rule="evenodd"
   fill-rule="evenodd" />
	<path
   id="path8"
   d="m 423.281,417.59 c 0.244,-0.275 0.996,-0.043 1.439,-0.12 -0.243,0.276 -0.995,0.044 -1.439,0.12 z"
   fill="#76adb9"
   clip-rule="evenodd"
   fill-rule="evenodd" />
	<path
   id="path10"
   d="m 443.081,417.59 c -0.443,-0.077 -1.195,0.155 -1.44,-0.12 0.443,0.077 1.195,-0.155 1.44,0.12 z"
   fill="#76adb9"
   clip-rule="evenodd"
   fill-rule="evenodd" />
	<path
   id="path12"
   d="m 469.841,492.11 c 0.523,-0.199 1.877,-0.199 2.4,0 -0.8,0 -1.6,0 -2.4,0 z"
   fill="#6092a2"
   clip-rule="evenodd"
   fill-rule="evenodd" />
	<path
   id="path14"
   d="m 432.521,501.591 c 0.274,0.166 0.045,0.835 0.12,1.2 -0.274,-0.167 -0.045,-0.836 -0.12,-1.2 z"
   fill="#6092a2"
   clip-rule="evenodd"
   fill-rule="evenodd" />
	<path
   id="path16"
   d="m 432.641,503.871 c 0.275,0.206 0.044,0.916 0.12,1.32 -0.275,-0.206 -0.044,-0.917 -0.12,-1.32 z"
   fill="#6092a2"
   clip-rule="evenodd"
   fill-rule="evenodd" />
	<path
   id="path18"
   d="m 432.761,506.63 c 0.277,0.363 0.043,1.238 0.12,1.8 -0.277,-0.363 -0.042,-1.237 -0.12,-1.8 z"
   fill="#6092a2"
   clip-rule="evenodd"
   fill-rule="evenodd" />
	<path
   id="path20"
   d="m 432.881,510.71 c 0.279,1.121 0.041,2.76 0.12,4.08 -0.279,-1.12 -0.04,-2.759 -0.12,-4.08 z"
   fill="#6092a2"
   clip-rule="evenodd"
   fill-rule="evenodd" />
	<path
   id="path22"
   d="m 433.001,518.75 c -0.079,1.36 0.159,3.04 -0.12,4.2 0.08,-1.36 -0.159,-3.039 0.12,-4.2 z"
   fill="#6092a2"
   clip-rule="evenodd"
   fill-rule="evenodd" />
	<path
   id="path24"
   d="m 432.881,525.11 c -0.077,0.562 0.157,1.437 -0.12,1.8 0.078,-0.562 -0.157,-1.436 0.12,-1.8 z"
   fill="#6092a2"
   clip-rule="evenodd"
   fill-rule="evenodd" />
	<path
   id="path26"
   d="m 432.761,528.351 c -0.076,0.443 0.155,1.195 -0.12,1.44 0.077,-0.444 -0.156,-1.196 0.12,-1.44 z"
   fill="#6092a2"
   clip-rule="evenodd"
   fill-rule="evenodd" />
	<path
   id="path28"
   d="m 500.201,530.631 c 0.273,0.166 0.045,0.835 0.12,1.2 -0.273,-0.167 -0.045,-0.836 -0.12,-1.2 z"
   fill="#76adb9"
   clip-rule="evenodd"
   fill-rule="evenodd" />
	<path
   id="path30"
   d="m 441.761,532.911 c 0.077,-0.483 -0.156,-1.276 0.12,-1.56 -0.077,0.482 0.156,1.275 -0.12,1.56 z"
   fill="#76adb9"
   clip-rule="evenodd"
   fill-rule="evenodd" />
	<path
   id="path32"
   d="m 500.321,531.831 c 0.2,1.481 0.2,3.799 0,5.28 0,-1.76 0,-3.52 0,-5.28 z"
   fill="#6092a2"
   clip-rule="evenodd"
   fill-rule="evenodd" />
	<path
   id="path34"
   d="m 441.761,532.911 c 0,1.04 0,2.08 0,3.12 -0.199,-0.762 -0.199,-2.359 0,-3.12 z"
   fill="#6092a2"
   clip-rule="evenodd"
   fill-rule="evenodd" />
	<path
   id="path36"
   d="m 441.761,536.031 c 0.276,0.323 0.043,1.157 0.12,1.68 -0.277,-0.324 -0.043,-1.158 -0.12,-1.68 z"
   fill="#76adb9"
   clip-rule="evenodd"
   fill-rule="evenodd" />
	<path
   id="path38"
   d="m 567.161,543.591 c 0.04,0 0.08,0 0.12,0 -0.076,0.404 0.154,1.114 -0.12,1.32 0,-0.44 0,-0.88 0,-1.32 z"
   fill="#76adb9"
   clip-rule="evenodd"
   fill-rule="evenodd" />
	<path
   id="path40"
   d="m 469.601,576.831 c 0.96,0 1.921,0 2.881,0 -0.683,0.199 -2.199,0.199 -2.881,0 z"
   fill="#6092a2"
   clip-rule="evenodd"
   fill-rule="evenodd" />
	<path
   id="path42"
   d="m 563.562,581.511 c 0.077,-0.562 -0.157,-1.437 0.12,-1.8 -0.078,0.562 0.156,1.436 -0.12,1.8 z"
   fill="#76adb9"
   clip-rule="evenodd"
   fill-rule="evenodd" />
	<path
   id="path44"
   d="m 563.562,581.631 c 0,1.76 0,3.52 0,5.28 -0.201,-1.481 -0.201,-3.8 0,-5.28 z"
   fill="#6092a2"
   clip-rule="evenodd"
   fill-rule="evenodd" />
	<path
   id="path46"
   d="m 563.562,587.271 c 0.276,0.324 0.042,1.158 0.12,1.68 -0.278,-0.324 -0.043,-1.158 -0.12,-1.68 z"
   fill="#76adb9"
   clip-rule="evenodd"
   fill-rule="evenodd" />
	<path
   id="path48"
   d="m 614.682,609.711 c 0.364,-0.199 1.556,-0.199 1.92,0 -0.641,0 -1.281,0 -1.92,0 z"
   fill="#6092a2"
   clip-rule="evenodd"
   fill-rule="evenodd" />
	<path
   id="path50"
   d="m 594.041,615.23 c 0,0.641 0,1.28 0,1.92 -0.199,-0.364 -0.199,-1.555 0,-1.92 z"
   fill="#76adb9"
   clip-rule="evenodd"
   fill-rule="evenodd" />
	<path
   id="path52"
   d="m 612.881,624.351 c -0.168,0.199 -1.151,0.199 -1.319,0 0.439,0 0.879,0 1.319,0 z"
   fill="#76adb9"
   clip-rule="evenodd"
   fill-rule="evenodd" />
	<path
   id="path54"
   d="m 630.401,625.911 c 0.199,0.482 0.199,1.797 0,2.279 0,-0.759 0,-1.519 0,-2.279 z"
   fill="#6092a2"
   clip-rule="evenodd"
   fill-rule="evenodd" />
	<path
   id="path56"
   d="m 651.281,626.511 c 0.2,1.201 0.2,3.239 0,4.44 0,-1.48 0,-2.96 0,-4.44 z"
   fill="#76adb9"
   clip-rule="evenodd"
   fill-rule="evenodd" />
	<path
   id="path58"
   d="m 414.761,647.631 c -0.075,0.364 0.154,1.033 -0.12,1.2 0.075,-0.365 -0.154,-1.034 0.12,-1.2 z"
   fill="#6092a2"
   clip-rule="evenodd"
   fill-rule="evenodd" />
	<path
   id="path60"
   d="m 605.801,649.071 c 0.841,0 1.681,0 2.521,0 -0.563,0.2 -1.958,0.2 -2.521,0 z"
   fill="#6092a2"
   clip-rule="evenodd"
   fill-rule="evenodd" />
	<path
   id="path62"
   d="m 414.641,650.271 c -0.078,0.562 0.157,1.438 -0.12,1.801 0.078,-0.563 -0.157,-1.438 0.12,-1.801 z"
   fill="#6092a2"
   clip-rule="evenodd"
   fill-rule="evenodd" />
	<path
   id="path64"
   d="m 414.521,654.591 c 0,2.04 0,4.08 0,6.12 -0.2,-1.761 -0.2,-4.359 0,-6.12 z"
   fill="#6092a2"
   clip-rule="evenodd"
   fill-rule="evenodd" />
	<path
   id="path66"
   d="m 414.521,663.11 c 0.277,0.363 0.042,1.238 0.12,1.801 -0.277,-0.363 -0.042,-1.238 -0.12,-1.801 z"
   fill="#6092a2"
   clip-rule="evenodd"
   fill-rule="evenodd" />
	<path
   id="path68"
   d="m 414.641,666.23 c 0.274,0.206 0.044,0.916 0.12,1.32 -0.275,-0.204 -0.044,-0.915 -0.12,-1.32 z"
   fill="#6092a2"
   clip-rule="evenodd"
   fill-rule="evenodd" />
	<path
   id="path70"
   d="m 591.521,679.071 c 0.68,0 1.359,0 2.04,0 0,0.039 0,0.08 0,0.119 -0.641,-0.078 -1.597,0.159 -2.04,-0.119 z"
   fill="#76adb9"
   clip-rule="evenodd"
   fill-rule="evenodd" />
	<path
   id="path72"
   d="m 593.562,679.19 c 0,-0.039 0,-0.08 0,-0.119 1.72,0 3.439,0 5.16,0 0,0.039 0,0.08 0,0.119 -1.721,0 -3.441,0 -5.16,0 z"
   fill="#6092a2"
   clip-rule="evenodd"
   fill-rule="evenodd" />
	<path
   id="path74"
   d="m 598.722,679.19 c 0,-0.039 0,-0.08 0,-0.119 0.6,0 1.199,0 1.8,0 -0.364,0.277 -1.239,0.042 -1.8,0.119 z"
   fill="#76adb9"
   clip-rule="evenodd"
   fill-rule="evenodd" />
	<path
   id="path76"
   d="m 464.921,685.431 c -0.077,0.483 0.156,1.276 -0.12,1.561 0.077,-0.484 -0.156,-1.277 0.12,-1.561 z"
   fill="#6092a2"
   clip-rule="evenodd"
   fill-rule="evenodd" />
	<path
   id="path78"
   d="m 464.801,691.791 c 0.276,0.284 0.043,1.077 0.12,1.56 -0.276,-0.284 -0.043,-1.077 -0.12,-1.56 z"
   fill="#6092a2"
   clip-rule="evenodd"
   fill-rule="evenodd" />
	<path
   id="path80"
   d="m 550.361,729.471 c 0.205,-0.274 0.916,-0.044 1.32,-0.12 -0.205,0.275 -0.915,0.045 -1.32,0.12 z"
   fill="#6092a2"
   clip-rule="evenodd"
   fill-rule="evenodd" />
	<path
   id="path82"
   d="m 553.602,729.351 c 0.443,0.077 1.195,-0.155 1.439,0.12 -0.443,-0.076 -1.195,0.155 -1.439,-0.12 z"
   fill="#6092a2"
   clip-rule="evenodd"
   fill-rule="evenodd" />
	<path
   id="path84"
   d="m 567.642,751.791 c 0.199,0.443 0.199,1.717 0,2.16 0,-0.72 0,-1.44 0,-2.16 z"
   fill="#6092a2"
   clip-rule="evenodd"
   fill-rule="evenodd" />
	<path
   id="path86"
   d="m 595.001,752.151 c 0.2,1.24 0.2,3.318 0,4.56 0,-1.52 0,-3.04 0,-4.56 z"
   fill="#6092a2"
   clip-rule="evenodd"
   fill-rule="evenodd" />
	<path
   id="path88"
   d="m 626.441,753.471 c 0.275,0.245 0.043,0.997 0.12,1.44 -0.275,-0.245 -0.043,-0.996 -0.12,-1.44 z"
   fill="#6092a2"
   clip-rule="evenodd"
   fill-rule="evenodd" />
	<path
   id="path90"
   d="m 626.562,755.031 c 0.2,2.24 0.2,5.319 0,7.56 0,-2.52 0,-5.04 0,-7.56 z"
   fill="#6092a2"
   clip-rule="evenodd"
   fill-rule="evenodd" />
	<path
   id="path92"
   d="m 414.041,757.791 c 0.404,-0.199 1.636,-0.199 2.04,0 -0.68,0 -1.36,0 -2.04,0 z"
   fill="#6092a2"
   clip-rule="evenodd"
   fill-rule="evenodd" />
	<path
   id="path94"
   d="m 541.961,759.471 c 0,0.44 0,0.88 0,1.32 -0.198,-0.168 -0.198,-1.151 0,-1.32 z"
   fill="#6092a2"
   clip-rule="evenodd"
   fill-rule="evenodd" />
	<path
   id="path96"
   d="m 518.801,761.151 c -0.078,0.602 0.157,1.517 -0.12,1.92 0.078,-0.602 -0.158,-1.517 0.12,-1.92 z"
   fill="#6092a2"
   clip-rule="evenodd"
   fill-rule="evenodd" />
	<path
   id="path98"
   d="m 626.562,762.711 c -0.077,0.443 0.155,1.195 -0.12,1.44 0.076,-0.443 -0.156,-1.195 0.12,-1.44 z"
   fill="#6092a2"
   clip-rule="evenodd"
   fill-rule="evenodd" />
	<path
   id="path100"
   d="m 419.321,771.351 c 0.483,0.077 1.276,-0.155 1.56,0.12 -0.483,-0.077 -1.276,0.156 -1.56,-0.12 z"
   fill="#6092a2"
   clip-rule="evenodd"
   fill-rule="evenodd" />
	<path
   id="path102"
   d="m 457.361,779.392 c 0.274,0.205 0.044,0.915 0.12,1.319 -0.275,-0.205 -0.044,-0.916 -0.12,-1.319 z"
   fill="#6092a2"
   clip-rule="evenodd"
   fill-rule="evenodd" />
	<path
   id="path104"
   d="m 441.641,780.831 c 0.2,0.483 0.2,1.797 0,2.28 0,-0.76 0,-1.52 0,-2.28 z"
   fill="#6092a2"
   clip-rule="evenodd"
   fill-rule="evenodd" />
	<path
   id="path106"
   d="m 489.881,781.911 c 0.274,0.205 0.044,0.916 0.12,1.32 -0.274,-0.206 -0.044,-0.916 -0.12,-1.32 z"
   fill="#6092a2"
   clip-rule="evenodd"
   fill-rule="evenodd" />
	<path
   id="path108"
   d="m 457.481,783.351 c -0.075,0.365 0.153,1.034 -0.12,1.2 0.076,-0.364 -0.154,-1.033 0.12,-1.2 z"
   fill="#6092a2"
   clip-rule="evenodd"
   fill-rule="evenodd" />
	<path
   id="path110"
   d="m 566.921,783.711 c 0.245,-0.275 0.997,-0.043 1.44,-0.12 -0.245,0.275 -0.997,0.044 -1.44,0.12 z"
   fill="#6092a2"
   clip-rule="evenodd"
   fill-rule="evenodd" />
	<path
   id="path112"
   d="m 416.201,786.231 c 0,0.88 0,1.76 0,2.64 -0.2,-0.602 -0.2,-2.038 0,-2.64 z"
   fill="#6092a2"
   clip-rule="evenodd"
   fill-rule="evenodd" />
	<path
   id="path114"
   d="m 423.881,787.911 c 0.48,0 0.96,0 1.44,0 -0.207,0.199 -1.233,0.199 -1.44,0 z"
   fill="#6092a2"
   clip-rule="evenodd"
   fill-rule="evenodd" />
	<path
   id="path116"
   d="m 490.001,788.271 c -0.075,0.364 0.153,1.033 -0.12,1.199 0.075,-0.364 -0.153,-1.032 0.12,-1.199 z"
   fill="#6092a2"
   clip-rule="evenodd"
   fill-rule="evenodd" />
	<path
   id="path118"
   d="m 381.161,791.392 c -0.076,0.403 0.155,1.114 -0.12,1.319 0.076,-0.403 -0.155,-1.114 0.12,-1.319 z"
   fill="#6092a2"
   clip-rule="evenodd"
   fill-rule="evenodd" />
	<path
   id="path120"
   d="m 381.041,793.431 c 0,1.36 0,2.721 0,4.08 -0.2,-1.081 -0.2,-2.999 0,-4.08 z"
   fill="#6092a2"
   clip-rule="evenodd"
   fill-rule="evenodd" />
	<path
   id="path122"
   d="m 427.48,812.031 c 0.641,0 1.28,0 1.921,0 -0.364,0.199 -1.555,0.199 -1.921,0 z"
   fill="#6092a2"
   clip-rule="evenodd"
   fill-rule="evenodd" />
	<path
   id="path124"
   d="m 574.841,815.151 c 0.245,-0.275 0.997,-0.044 1.44,-0.12 -0.245,0.276 -0.996,0.043 -1.44,0.12 z"
   fill="#76adb9"
   clip-rule="evenodd"
   fill-rule="evenodd" />
	<path
   id="path126"
   d="m 429.401,842.991 c 0.522,0.077 1.356,-0.156 1.68,0.12 -0.522,-0.077 -1.356,0.157 -1.68,-0.12 z"
   fill="#76adb9"
   clip-rule="evenodd"
   fill-rule="evenodd" />
	<path
   id="path128"
   d="m 435.281,843.111 c 0.323,-0.276 1.157,-0.043 1.68,-0.12 -0.323,0.277 -1.157,0.043 -1.68,0.12 z"
   fill="#76adb9"
   clip-rule="evenodd"
   fill-rule="evenodd" />
	<path
   id="path130"
   d="m 432.041,843.111 c 0.76,0 1.52,0 2.28,0 -0.483,0.2 -1.797,0.2 -2.28,0 z"
   fill="#76adb9"
   clip-rule="evenodd"
   fill-rule="evenodd" />
	<path
   id="path132"
   d="m 413.561,418.55 c 9.999,24.002 17.063,50.937 18.959,83.041 0.075,0.364 -0.153,1.033 0.12,1.2 0,0.36 0,0.72 0,1.08 0.076,0.404 -0.154,1.115 0.12,1.32 0,0.48 0,0.96 0,1.44 0.078,0.562 -0.157,1.437 0.12,1.8 0,0.76 0,1.52 0,2.28 0.08,1.321 -0.159,2.959 0.12,4.08 0,1.32 0,2.64 0,3.96 -0.279,1.161 -0.04,2.839 -0.12,4.2 0,0.72 0,1.44 0,2.16 -0.277,0.363 -0.042,1.238 -0.12,1.8 0,0.48 0,0.96 0,1.44 -0.275,0.245 -0.043,0.997 -0.12,1.44 -1.678,43.562 -15.531,74.949 -17.88,117.84 -0.273,0.166 -0.044,0.835 -0.12,1.2 0,0.479 0,0.96 0,1.439 -0.277,0.363 -0.042,1.238 -0.12,1.801 0,0.84 0,1.68 0,2.52 -0.2,1.761 -0.2,4.359 0,6.12 0,0.8 0,1.6 0,2.399 0.078,0.562 -0.157,1.438 0.12,1.801 0,0.439 0,0.88 0,1.319 0.076,0.404 -0.155,1.115 0.12,1.32 0.971,20.59 5.6,37.52 12,52.681 0.295,0.505 0.479,1.121 0.84,1.56 4.854,9.965 10.599,18.407 16.92,26.76 6.266,8.277 11.636,17.712 12.841,30.841 0.075,0.403 -0.155,1.114 0.12,1.319 0,0.88 0,1.76 0,2.64 -0.274,0.167 -0.045,0.836 -0.12,1.2 -0.55,7.931 -3.303,13.658 -7.2,18.24 -0.65,0.55 -1.25,1.15 -1.8,1.8 -4.841,3.96 -10.564,7.036 -18.96,7.44 -0.641,0 -1.28,0 -1.921,0 -8.768,-1.038 -15.962,-4.803 -19.68,-11.28 -3.63,-6.324 -5.143,-17.648 0,-23.88 0.73,-0.63 1.41,-1.31 2.04,-2.04 2.459,-1.86 5.274,-3.366 9.48,-3.48 0.284,0.276 1.077,0.043 1.56,0.12 5.677,0.749 10.494,5.687 9,12.36 -0.129,0.574 -0.475,1.162 -0.72,1.8 -0.45,0.35 -0.851,0.75 -1.2,1.2 -0.803,0.437 -1.567,0.912 -2.64,1.08 -0.48,0 -0.96,0 -1.44,0 -2.256,-0.355 -3.777,-1.991 -4.68,-4.561 -0.225,-0.639 -0.492,-2.044 -0.96,-2.159 -1.386,-0.342 -1.982,3.753 -2.04,5.04 -0.199,0.602 -0.199,2.037 0,2.64 -0.242,9.745 13.784,12.456 20.041,6.96 0.649,-0.55 1.25,-1.149 1.8,-1.8 2.115,-2.725 3.478,-6.202 3.6,-10.92 0.2,-0.483 0.2,-1.797 0,-2.28 -0.287,-6.553 -2.472,-11.208 -5.52,-15 -0.59,-0.69 -1.23,-1.33 -1.92,-1.92 -4.39,-3.69 -10.237,-5.924 -18.12,-6.12 -0.404,-0.199 -1.636,-0.199 -2.04,0 -10.072,0.288 -16.582,4.139 -22.32,8.76 -0.49,0.39 -0.93,0.83 -1.32,1.32 -0.107,0.053 -0.215,0.105 -0.24,0.24 -0.53,0.43 -1.01,0.909 -1.44,1.439 -1.303,1.577 -2.573,3.188 -3.48,5.16 -0.477,0.403 -0.616,1.145 -0.96,1.68 -1.813,4.227 -3.183,8.897 -3.12,15.001 -0.274,0.205 -0.044,0.916 -0.12,1.319 0,0.24 0,0.48 0,0.72 -0.2,1.081 -0.2,2.999 0,4.08 0.245,6.795 2.031,12.05 4.2,16.92 0.303,0.457 0.405,1.116 0.84,1.44 0.516,1.364 1.356,2.403 2.04,3.601 -7.163,-12.287 -20.424,-22.32 -36.12,-22.32 -3.68,0 -6.991,0.266 -9.6,0.84 -4.44,0.977 -9.144,2.683 -14.16,6 -2.589,1.712 -4.946,3.335 -7.44,4.8 -2.596,1.524 -5.283,2.548 -8.16,3.48 -5.653,1.832 -9.681,2.879 -17.16,2.88 -7.764,0.001 -12.103,-0.802 -17.52,-2.521 -5.922,-1.879 -10.851,-4.66 -15.84,-8.399 -9.072,-6.801 -16.355,-16.524 -20.04,-28.681 -1.876,-6.189 -2.979,-14.109 -2.28,-21.84 0.651,-7.207 2.594,-13.564 5.16,-19.08 1.32,-2.836 2.65,-5.571 4.2,-8.04 1.527,-2.433 3.494,-4.541 5.28,-6.84 3.526,-4.539 7.438,-8.644 11.16,-13.08 7.439,-8.866 14.689,-17.614 20.04,-28.56 -9.203,1.418 -22.797,1.489 -31.8,-0.24 -20.415,-3.921 -34.424,-17.742 -38.041,-39 -2.024,-11.901 -0.167,-23.517 5.28,-31.44 4.882,-7.102 13.897,-13.308 24.36,-13.68 11.73,-0.417 20.645,3.838 24.72,12.72 4.688,10.216 1.316,23.572 -6.48,27.72 -8.47,4.507 -18.535,-1.493 -17.16,-12.359 0.139,-1.098 0.357,-2.635 1.44,-3.36 0.71,0.783 0.672,2.316 1.32,3.36 1.199,1.931 5.055,3.732 8.16,1.8 2.74,-1.706 2.728,-5.899 1.44,-8.76 -2.54,-5.64 -10.041,-6.51 -15.36,-2.761 -5.691,4.012 -9.625,12.593 -6.36,22.32 2.619,7.801 8.051,12.899 16.8,14.28 8.374,1.321 16.853,-0.956 23.64,-5.04 12.906,-7.766 19.926,-21.836 23.28,-38.88 1.807,-9.181 2.296,-18.791 1.56,-28.8 -0.682,-9.275 -2.413,-18.496 -3.12,-27.96 -1.548,-20.725 2.808,-38.432 9,-52.8 12.284,-28.503 33.74,-49.72 61.08,-63.24 7.164,-3.542 14.645,-6.429 22.32,-8.76 8.085,-2.455 14.471,-3.589 21.841,-4.68 z m -40.56,88.921 c -4.406,7.438 -6.959,17.613 -6.96,29.28 -10e-4,11.461 3.522,21.009 8.16,28.08 4.468,6.813 12.267,13.702 22.44,12.84 9.117,-0.772 16.246,-6.938 20.88,-14.64 4.56,-7.579 7.147,-16.924 7.08,-29.16 -0.061,-11.103 -3.622,-21.464 -8.04,-28.2 -4.344,-6.624 -12.254,-13.888 -22.44,-13.08 -10.135,0.804 -16.659,7.347 -21.12,14.88 z"
   fill="#76adb9"
   clip-rule="evenodd"
   fill-rule="evenodd" />
	<path
   id="path134"
   d="m 472.961,825.951 c 0.709,-0.531 0.842,-1.638 1.8,-1.92 -0.616,0.624 -1.098,1.382 -1.8,1.92 z"
   fill="#76adb9"
   clip-rule="evenodd"
   fill-rule="evenodd" />
	<path
   id="path136"
   d="m 481.841,814.071 c 4.289,-6.591 7.535,-14.226 8.04,-24.601 0.273,-0.166 0.045,-0.835 0.12,-1.199 0,-1.681 0,-3.36 0,-5.04 -0.076,-0.404 0.154,-1.115 -0.12,-1.32 -1.327,-17.842 -6.663,-31.178 -12.359,-44.4 -5.681,-13.184 -11.981,-26.139 -12.601,-44.16 -0.077,-0.482 0.156,-1.275 -0.12,-1.56 0,-1.601 0,-3.2 0,-4.8 0.276,-0.284 0.043,-1.077 0.12,-1.561 0.618,-11.622 3.288,-21.191 7.2,-29.52 12.711,-3.41 24.171,-8.709 34.2,-14.4 1.312,5.808 3.286,10.954 5.64,15.72 0.222,0.578 0.419,1.182 0.84,1.561 4.318,8.802 10.01,16.23 16.2,23.16 0.71,0.81 1.47,1.569 2.28,2.279 0,0.04 0,0.081 0,0.12 0.71,0.811 1.47,1.57 2.28,2.28 0.244,0.035 0.235,0.325 0.479,0.36 0.63,0.729 1.311,1.41 2.04,2.04 0.097,0.022 0.12,0.12 0.24,0.12 0.39,0.49 0.83,0.93 1.32,1.319 11.411,10.709 25.783,18.456 37.56,28.8 0.35,0.451 0.75,0.851 1.2,1.2 0.04,0 0.08,0 0.12,0 0.47,0.57 0.989,1.091 1.56,1.561 0.04,0 0.08,0 0.12,0 0.83,0.93 1.71,1.81 2.64,2.64 0.023,0.098 0.121,0.12 0.12,0.24 0.55,0.65 1.15,1.25 1.801,1.8 5.698,6.861 11.398,13.721 12.239,25.44 0,1.52 0,3.04 0,4.56 -0.613,7.747 -3.55,13.17 -7.319,17.76 -0.61,0.511 -1.171,1.07 -1.681,1.681 -4.542,3.818 -10.017,6.703 -17.64,7.439 -0.443,0.077 -1.195,-0.155 -1.44,0.12 -14.896,-1.063 -23.484,-8.436 -24.96,-22.92 0,-0.44 0,-0.88 0,-1.32 0.213,-4.627 1.418,-8.262 3.48,-11.04 0.689,-0.59 1.33,-1.229 1.92,-1.92 2.789,-2.052 6.203,-3.933 10.68,-3.479 5.109,0.518 8.959,3.851 9.601,8.76 0,0.72 0,1.44 0,2.16 -0.117,3.8 -3.39,6.625 -7.08,5.399 -2.628,-0.872 -3.707,-3.511 -4.44,-6.359 -0.313,-0.594 -1.087,10e-4 -1.2,0.359 -2.674,5.682 -0.947,12.236 3.36,14.881 4.237,2.601 11.734,3.003 15.48,-0.721 0.649,-0.55 1.25,-1.149 1.8,-1.8 4.714,-4.729 4.63,-17.401 1.2,-23.52 -0.263,-0.379 -0.327,-0.954 -0.721,-1.2 -0.566,-1.434 -1.506,-2.494 -2.399,-3.601 -0.55,-0.649 -1.15,-1.25 -1.801,-1.8 -4.118,-3.521 -9.588,-5.691 -16.8,-6.12 -0.244,-0.275 -0.996,-0.043 -1.439,-0.12 -0.641,0 -1.28,0 -1.92,0 -0.404,0.076 -1.115,-0.154 -1.32,0.12 -9.306,0.574 -15.513,4.248 -21,8.641 -0.53,0.43 -1.011,0.909 -1.44,1.439 -0.102,-0.021 -0.113,0.047 -0.12,0.12 -0.569,0.47 -1.09,0.99 -1.56,1.561 -4.14,4.98 -7.042,11.197 -7.44,19.92 -0.277,0.402 -0.042,1.317 -0.12,1.92 -0.966,15.693 4.53,25.945 11.641,33.96 0.75,0.85 1.55,1.649 2.399,2.399 0.098,0.023 0.12,0.121 0.24,0.12 0.39,0.49 0.83,0.931 1.32,1.32 1.285,1.234 2.801,2.239 4.2,3.36 -4.348,-2.855 -8.954,-4.859 -13.08,-5.88 -3.828,-0.947 -11.5,-1.649 -17.16,-0.601 -4.491,0.832 -10.466,2.955 -14.76,5.641 -4.645,2.906 -8.178,6.403 -11.64,10.682 z"
   fill="#76adb9"
   clip-rule="evenodd"
   fill-rule="evenodd" />
	<path
   id="path138"
   d="m 544.481,808.071 c 1.173,0.482 2.269,1.245 3.479,1.8 1.201,0.55 2.646,0.771 3.601,1.68 -2.453,-0.855 -4.94,-1.999 -7.08,-3.48 z"
   fill="#76adb9"
   clip-rule="evenodd"
   fill-rule="evenodd" />
	<path
   id="path140"
   d="m 551.682,811.551 c 6.374,2.506 13.81,3.95 23.039,3.601 -8.979,0.578 -16.903,-0.938 -23.039,-3.601 z"
   fill="#76adb9"
   clip-rule="evenodd"
   fill-rule="evenodd" />
	<path
   id="path142"
   d="m 636.281,666.23 c 0.83,-0.93 1.71,-1.81 2.64,-2.64 -0.829,0.931 -1.71,1.811 -2.64,2.64 z"
   fill="#76adb9"
   clip-rule="evenodd"
   fill-rule="evenodd" />
	<path
   id="path144"
   d="m 640.602,602.15 c 0.77,0.67 1.49,1.391 2.16,2.16 -0.771,-0.669 -1.491,-1.389 -2.16,-2.16 z"
   fill="#76adb9"
   clip-rule="evenodd"
   fill-rule="evenodd" />
	<path
   id="path146"
   d="m 598.722,631.071 c 0.529,0.43 1.01,0.909 1.439,1.439 -0.53,-0.429 -1.01,-0.909 -1.439,-1.439 z"
   fill="#76adb9"
   clip-rule="evenodd"
   fill-rule="evenodd" />
	<path
   id="path148"
   d="m 566.441,554.15 c -0.197,-0.64 0.101,-1.817 0.24,-2.52 0.014,0.934 -0.17,1.67 -0.24,2.52 z"
   fill="#76adb9"
   clip-rule="evenodd"
   fill-rule="evenodd" />
	<path
   id="path150"
   d="m 538.481,804.231 c -1.399,-1.121 -2.915,-2.126 -4.2,-3.36 -0.39,-0.49 -0.83,-0.93 -1.32,-1.32 -0.12,10e-4 -0.143,-0.097 -0.24,-0.12 -0.75,-0.85 -1.55,-1.649 -2.399,-2.399 -7.11,-8.015 -12.606,-18.267 -11.641,-33.96 0.277,-0.403 0.042,-1.318 0.12,-1.92 0.398,-8.723 3.301,-14.939 7.44,-19.92 0.57,-0.471 1.09,-0.99 1.56,-1.561 0.007,-0.073 0.019,-0.142 0.12,-0.12 0.53,-0.43 1.011,-0.909 1.44,-1.439 5.487,-4.393 11.694,-8.066 21,-8.641 0.404,-0.075 1.114,0.155 1.32,-0.12 0.64,0 1.279,0 1.92,0 0.244,0.275 0.996,0.044 1.439,0.12 7.212,0.429 12.682,2.599 16.8,6.12 0.55,0.65 1.15,1.25 1.801,1.8 0.894,1.106 1.833,2.167 2.399,3.601 0.262,0.378 0.326,0.953 0.721,1.2 3.43,6.118 3.514,18.79 -1.2,23.52 -0.65,0.55 -1.25,1.15 -1.8,1.8 -3.746,3.724 -11.243,3.321 -15.48,0.721 -4.308,-2.645 -6.034,-9.199 -3.36,-14.881 0.28,-0.216 0.697,-0.745 1.2,-0.359 0.733,2.849 1.812,5.487 4.44,6.359 3.69,1.226 6.963,-1.6 7.08,-5.399 0.199,-0.443 0.199,-1.717 0,-2.16 -0.642,-4.909 -4.491,-8.242 -9.601,-8.76 -4.477,-0.453 -7.891,1.428 -10.68,3.479 -0.69,0.59 -1.33,1.23 -1.92,1.92 -2.062,2.778 -3.268,6.413 -3.48,11.04 -0.198,0.169 -0.198,1.152 0,1.32 1.476,14.484 10.064,21.856 24.96,22.92 0.443,-0.076 1.195,0.155 1.44,-0.12 7.623,-0.736 13.098,-3.621 17.64,-7.439 0.61,-0.51 1.171,-1.07 1.681,-1.681 3.77,-4.59 6.706,-10.013 7.319,-17.76 0.2,-1.241 0.2,-3.319 0,-4.56 -0.841,-11.72 -6.541,-18.579 -12.239,-25.44 -0.551,-0.65 -1.15,-1.25 -1.801,-1.8 10e-4,-0.12 -0.097,-0.143 -0.12,-0.24 -0.829,-0.93 -1.71,-1.81 -2.64,-2.64 -0.04,0 -0.08,0 -0.12,0 -0.47,-0.57 -0.989,-1.091 -1.56,-1.561 -0.04,0 -0.08,0 -0.12,0 -0.35,-0.45 -0.75,-0.85 -1.2,-1.2 -11.776,-10.344 -26.148,-18.091 -37.56,-28.8 -0.391,-0.49 -0.83,-0.93 -1.32,-1.319 -0.12,0 -0.144,-0.098 -0.24,-0.12 -0.63,-0.73 -1.31,-1.41 -2.04,-2.04 -0.244,-0.035 -0.235,-0.325 -0.479,-0.36 -0.71,-0.81 -1.471,-1.57 -2.28,-2.28 0,-0.039 0,-0.08 0,-0.12 -0.71,-0.81 -1.47,-1.569 -2.28,-2.279 -6.19,-6.93 -11.882,-14.358 -16.2,-23.16 -0.295,-0.506 -0.478,-1.122 -0.84,-1.561 -2.354,-4.766 -4.328,-9.912 -5.64,-15.72 -10.029,5.691 -21.489,10.99 -34.2,14.4 -3.912,8.328 -6.582,17.897 -7.2,29.52 -0.276,0.284 -0.043,1.077 -0.12,1.561 0,1.6 0,3.199 0,4.8 0.077,0.483 -0.156,1.276 0.12,1.56 0.619,18.021 6.92,30.977 12.601,44.16 5.696,13.223 11.032,26.559 12.359,44.4 0.076,0.404 -0.154,1.114 0.12,1.32 0,1.68 0,3.359 0,5.04 -0.273,0.166 -0.045,0.835 -0.12,1.199 -0.505,10.375 -3.751,18.01 -8.04,24.601 -2.237,3.441 -4.369,6.99 -7.08,9.96 -0.958,0.282 -1.091,1.389 -1.8,1.92 -8.75,8.931 -19.609,15.75 -36,17.04 -0.522,0.077 -1.356,-0.156 -1.68,0.12 -0.32,0 -0.641,0 -0.96,0 -0.761,0 -1.521,0 -2.28,0 -0.32,0 -0.64,0 -0.96,0 -0.323,-0.276 -1.157,-0.043 -1.68,-0.12 -19.832,-1.769 -32.172,-11.028 -41.28,-23.52 -0.684,-1.197 -1.524,-2.236 -2.04,-3.601 -0.303,-0.457 -0.405,-1.115 -0.84,-1.44 -2.169,-4.87 -3.955,-10.125 -4.2,-16.92 0,-1.359 0,-2.72 0,-4.08 0,-0.239 0,-0.479 0,-0.72 0.274,-0.205 0.044,-0.916 0.12,-1.319 -0.063,-6.104 1.307,-10.774 3.12,-15.001 0.477,-0.403 0.616,-1.144 0.96,-1.68 0.907,-1.973 2.177,-3.583 3.48,-5.16 0.53,-0.43 1.01,-0.909 1.44,-1.439 0.025,-0.135 0.133,-0.188 0.24,-0.24 0.49,-0.39 0.93,-0.83 1.32,-1.32 5.739,-4.621 12.248,-8.472 22.32,-8.76 0.68,0 1.36,0 2.04,0 7.883,0.196 13.73,2.43 18.12,6.12 0.59,0.69 1.229,1.33 1.92,1.92 3.048,3.792 5.232,8.447 5.52,15 0,0.76 0,1.52 0,2.28 -0.122,4.718 -1.484,8.195 -3.6,10.92 -0.65,0.55 -1.25,1.149 -1.8,1.8 -6.257,5.496 -20.282,2.785 -20.041,-6.96 0,-0.88 0,-1.76 0,-2.64 0.058,-1.287 0.654,-5.382 2.04,-5.04 0.468,0.115 0.736,1.521 0.96,2.159 0.902,2.569 2.424,4.205 4.68,4.561 0.207,0.199 1.233,0.199 1.44,0 1.072,-0.168 1.837,-0.644 2.64,-1.08 0.45,-0.35 0.851,-0.75 1.2,-1.2 0.245,-0.638 0.591,-1.226 0.72,-1.8 1.494,-6.674 -3.323,-11.611 -9,-12.36 -0.284,-0.275 -1.077,-0.043 -1.56,-0.12 -4.206,0.114 -7.021,1.62 -9.48,3.48 -0.73,0.63 -1.41,1.31 -2.04,2.04 -5.143,6.231 -3.63,17.556 0,23.88 3.718,6.478 10.912,10.242 19.68,11.28 0.365,0.199 1.557,0.199 1.921,0 8.396,-0.404 14.119,-3.48 18.96,-7.44 0.649,-0.55 1.25,-1.149 1.8,-1.8 3.897,-4.582 6.65,-10.31 7.2,-18.24 0.273,-0.166 0.045,-0.835 0.12,-1.2 0,-0.88 0,-1.76 0,-2.64 -0.076,-0.404 0.154,-1.114 -0.12,-1.319 -1.205,-13.129 -6.575,-22.563 -12.841,-30.841 -6.321,-8.353 -12.066,-16.795 -16.92,-26.76 -0.222,-0.578 -0.418,-1.182 -0.84,-1.56 -6.4,-15.161 -11.029,-32.091 -12,-52.681 -0.076,-0.404 0.155,-1.114 -0.12,-1.32 0,-0.439 0,-0.88 0,-1.319 -0.078,-0.562 0.157,-1.438 -0.12,-1.801 0,-0.8 0,-1.6 0,-2.399 0,-2.04 0,-4.08 0,-6.12 0,-0.84 0,-1.68 0,-2.52 0.277,-0.363 0.042,-1.238 0.12,-1.801 0,-0.479 0,-0.96 0,-1.439 0.273,-0.167 0.044,-0.836 0.12,-1.2 2.349,-42.892 16.202,-74.278 17.88,-117.84 0.275,-0.245 0.044,-0.997 0.12,-1.44 0,-0.48 0,-0.96 0,-1.44 0.277,-0.363 0.043,-1.238 0.12,-1.8 0,-0.72 0,-1.44 0,-2.16 0.279,-1.161 0.041,-2.84 0.12,-4.2 0,-1.32 0,-2.64 0,-3.96 -0.079,-1.32 0.159,-2.959 -0.12,-4.08 0,-0.76 0,-1.52 0,-2.28 -0.077,-0.562 0.157,-1.437 -0.12,-1.8 0,-0.48 0,-0.96 0,-1.44 -0.076,-0.404 0.155,-1.114 -0.12,-1.32 0,-0.36 0,-0.72 0,-1.08 -0.075,-0.365 0.154,-1.034 -0.12,-1.2 -1.896,-32.104 -8.961,-59.039 -18.959,-83.041 3.09,-0.47 6.294,-0.826 9.72,-0.96 0.443,-0.077 1.195,0.155 1.439,-0.12 0.2,0 0.4,0 0.601,0 0.602,-0.078 1.517,0.158 1.92,-0.12 0.28,0 0.56,0 0.84,0 3.399,0 6.8,0 10.2,0 0.279,0 0.56,0 0.84,0 0.402,0.277 1.317,0.042 1.92,0.12 0.2,0 0.4,0 0.6,0 0.245,0.275 0.997,0.043 1.44,0.12 36.784,2.51 63.187,16.667 84.48,34.92 5.245,4.497 9.979,9.887 14.399,15.48 13.011,16.458 23.3,37.035 25.08,64.44 0.079,0.722 -0.158,1.758 0.12,2.28 0.249,0.431 0.062,1.298 0.12,1.92 -0.28,2.08 -0.04,4.68 -0.12,6.96 0,0.44 0,0.88 0,1.32 -0.02,2.381 -0.197,4.603 -0.479,6.72 -0.14,0.702 -0.438,1.88 -0.24,2.52 -0.791,8.65 -2.256,16.625 -2.76,25.561 -0.277,0.363 -0.043,1.237 -0.12,1.8 0,0.04 0,0.08 0,0.12 -0.2,1.48 -0.2,3.799 0,5.28 0,0.12 0,0.24 0,0.36 0.077,0.523 -0.157,1.356 0.12,1.68 0.842,15.864 4.419,29.807 10.8,40.32 6.354,10.471 16.121,18.251 31.319,19.801 0.563,0.199 1.958,0.199 2.521,0 13.531,-0.789 20.666,-7.975 22.08,-20.881 0.199,-0.482 0.199,-1.797 0,-2.279 -1.097,-8.904 -5.52,-14.48 -13.8,-16.2 -0.364,-0.199 -1.556,-0.199 -1.92,0 -4.976,0.354 -9.605,5.718 -7.801,11.28 0.619,1.906 2.198,3.119 4.681,3.359 0.168,0.199 1.151,0.199 1.319,0 1.509,-0.219 2.658,-0.698 3.48,-1.56 1.092,-1.144 1.221,-2.761 1.92,-4.32 2.013,1.32 1.975,5.768 1.32,8.521 -0.622,2.612 -2.269,4.913 -4.08,6.359 -4.013,3.202 -11.847,3.077 -15.36,-0.84 -0.43,-0.53 -0.91,-1.01 -1.439,-1.439 -2.825,-3.376 -4.512,-7.889 -4.681,-13.921 0,-0.64 0,-1.279 0,-1.92 1.236,-13.483 9.047,-20.393 22.801,-21.36 1.4,-0.08 3.119,0.16 4.319,-0.12 8.552,0.729 14.461,4.1 19.44,8.399 0.67,0.771 1.39,1.49 2.16,2.16 4.813,5.426 8.232,12.247 8.52,22.2 0,1.48 0,2.96 0,4.44 -0.277,0.481 -0.041,1.478 -0.12,2.159 -0.927,13.314 -5.511,22.97 -12.24,30.48 -0.93,0.83 -1.81,1.71 -2.64,2.64 -8.096,7.305 -18.604,12.196 -33.48,12.721 -0.721,0.078 -1.758,-0.158 -2.279,0.12 -0.601,0 -1.2,0 -1.8,0 -1.721,0 -3.44,0 -5.16,0 -0.681,0 -1.36,0 -2.04,0 -0.522,-0.278 -1.559,-0.042 -2.28,-0.12 -3.003,-0.077 -5.794,-0.366 -8.4,-0.84 8.076,16.959 21.059,29.199 32.4,43.199 6.69,8.259 11.828,18.563 13.2,32.16 0.076,0.444 -0.155,1.195 0.12,1.44 0,0.04 0,0.08 0,0.12 0,2.52 0,5.04 0,7.56 0,0.04 0,0.08 0,0.12 -0.275,0.245 -0.044,0.997 -0.12,1.44 -1.474,14.965 -7.654,26.254 -15.96,34.56 -8.308,8.309 -19.131,14.943 -34.2,16.32 -0.443,0.076 -1.195,-0.155 -1.44,0.12 -0.04,0 -0.08,0 -0.12,0 -9.229,0.35 -16.665,-1.095 -23.039,-3.601 -0.041,0 -0.08,0 -0.12,0 -0.955,-0.908 -2.399,-1.13 -3.601,-1.68 -1.211,-0.555 -2.307,-1.317 -3.479,-1.8 -2.243,-1.038 -4.075,-2.485 -6.001,-3.839 z M 469.841,492.11 c -6.328,0.552 -10.569,3.19 -14.28,6.36 -0.529,0.43 -1.01,0.91 -1.439,1.44 -7.062,7.498 -11.412,17.708 -12.24,31.44 -0.276,0.284 -0.043,1.077 -0.12,1.56 -0.199,0.762 -0.199,2.358 0,3.12 0.077,0.522 -0.156,1.356 0.12,1.68 0.837,13.803 5.319,23.961 12.36,31.56 0.413,0.507 0.971,0.87 1.439,1.32 3.639,3.081 7.809,5.632 13.92,6.24 0.683,0.2 2.198,0.2 2.881,0 6.674,-0.646 11.023,-3.616 14.88,-7.08 0.49,-0.39 0.93,-0.83 1.319,-1.32 6.648,-7.672 10.83,-17.811 11.641,-31.32 0.2,-1.48 0.2,-3.799 0,-5.28 -0.075,-0.365 0.153,-1.034 -0.12,-1.2 -0.626,-10.078 -3.61,-18.665 -7.92,-25.32 -4.246,-6.557 -10.328,-12.164 -20.04,-13.2 -0.524,-0.199 -1.878,-0.199 -2.401,0 z"
   fill="#4c7f92"
   clip-rule="evenodd"
   fill-rule="evenodd" />
	<path
   id="path152"
   d="m 532.961,799.551 c 0.49,0.391 0.931,0.83 1.32,1.32 -0.49,-0.39 -0.93,-0.83 -1.32,-1.32 z"
   fill="#6092a2"
   clip-rule="evenodd"
   fill-rule="evenodd" />
	<path
   id="path154"
   d="m 530.321,797.031 c 0.85,0.75 1.649,1.55 2.399,2.399 -0.849,-0.749 -1.649,-1.549 -2.399,-2.399 z"
   fill="#6092a2"
   clip-rule="evenodd"
   fill-rule="evenodd" />
	<path
   id="path156"
   d="m 526.241,741.231 c 0.47,-0.57 0.99,-1.091 1.56,-1.561 -0.47,0.571 -0.989,1.091 -1.56,1.561 z"
   fill="#6092a2"
   clip-rule="evenodd"
   fill-rule="evenodd" />
	<path
   id="path158"
   d="m 527.921,739.551 c 0.43,-0.53 0.91,-1.01 1.44,-1.439 -0.429,0.53 -0.91,1.009 -1.44,1.439 z"
   fill="#6092a2"
   clip-rule="evenodd"
   fill-rule="evenodd" />
	<path
   id="path160"
   d="m 571.841,735.591 c 0.65,0.55 1.251,1.15 1.801,1.8 -0.651,-0.55 -1.251,-1.15 -1.801,-1.8 z"
   fill="#6092a2"
   clip-rule="evenodd"
   fill-rule="evenodd" />
	<path
   id="path162"
   d="m 576.041,740.991 c 0.394,0.246 0.458,0.821 0.721,1.2 -0.395,-0.247 -0.459,-0.822 -0.721,-1.2 z"
   fill="#6092a2"
   clip-rule="evenodd"
   fill-rule="evenodd" />
	<path
   id="path164"
   d="m 573.762,767.511 c 0.55,-0.649 1.149,-1.25 1.8,-1.8 -0.55,0.65 -1.151,1.25 -1.8,1.8 z"
   fill="#6092a2"
   clip-rule="evenodd"
   fill-rule="evenodd" />
	<path
   id="path166"
   d="m 554.921,753.351 c 0.113,-0.358 0.887,-0.953 1.2,-0.359 -0.503,-0.387 -0.92,0.143 -1.2,0.359 z"
   fill="#6092a2"
   clip-rule="evenodd"
   fill-rule="evenodd" />
	<path
   id="path168"
   d="m 545.441,748.431 c 0.59,-0.689 1.229,-1.33 1.92,-1.92 -0.59,0.69 -1.23,1.33 -1.92,1.92 z"
   fill="#6092a2"
   clip-rule="evenodd"
   fill-rule="evenodd" />
	<path
   id="path170"
   d="m 586.001,776.151 c 0.51,-0.61 1.07,-1.17 1.681,-1.681 -0.51,0.611 -1.071,1.172 -1.681,1.681 z"
   fill="#6092a2"
   clip-rule="evenodd"
   fill-rule="evenodd" />
	<path
   id="path172"
   d="m 580.961,724.911 c 0.65,0.55 1.25,1.149 1.801,1.8 -0.651,-0.55 -1.251,-1.149 -1.801,-1.8 z"
   fill="#6092a2"
   clip-rule="evenodd"
   fill-rule="evenodd" />
	<path
   id="path174"
   d="m 578.201,722.031 c 0.93,0.83 1.811,1.71 2.64,2.64 -0.93,-0.83 -1.81,-1.71 -2.64,-2.64 z"
   fill="#6092a2"
   clip-rule="evenodd"
   fill-rule="evenodd" />
	<path
   id="path176"
   d="m 576.521,720.471 c 0.57,0.47 1.09,0.99 1.56,1.561 -0.57,-0.47 -1.09,-0.991 -1.56,-1.561 z"
   fill="#6092a2"
   clip-rule="evenodd"
   fill-rule="evenodd" />
	<path
   id="path178"
   d="m 575.201,719.271 c 0.45,0.351 0.851,0.75 1.2,1.2 -0.45,-0.35 -0.85,-0.749 -1.2,-1.2 z"
   fill="#6092a2"
   clip-rule="evenodd"
   fill-rule="evenodd" />
	<path
   id="path180"
   d="m 536.321,689.151 c 0.49,0.39 0.93,0.829 1.32,1.319 -0.49,-0.389 -0.93,-0.828 -1.32,-1.319 z"
   fill="#6092a2"
   clip-rule="evenodd"
   fill-rule="evenodd" />
	<path
   id="path182"
   d="m 534.041,686.991 c 0.73,0.63 1.41,1.31 2.04,2.04 -0.729,-0.63 -1.41,-1.31 -2.04,-2.04 z"
   fill="#6092a2"
   clip-rule="evenodd"
   fill-rule="evenodd" />
	<path
   id="path184"
   d="m 531.281,684.351 c 0.81,0.71 1.57,1.471 2.28,2.28 -0.81,-0.71 -1.57,-1.47 -2.28,-2.28 z"
   fill="#6092a2"
   clip-rule="evenodd"
   fill-rule="evenodd" />
	<path
   id="path186"
   d="m 529.001,681.951 c 0.811,0.71 1.57,1.47 2.28,2.279 -0.81,-0.709 -1.57,-1.469 -2.28,-2.279 z"
   fill="#6092a2"
   clip-rule="evenodd"
   fill-rule="evenodd" />
	<path
   id="path188"
   d="m 511.961,657.23 c 0.362,0.438 0.545,1.055 0.84,1.561 -0.421,-0.379 -0.618,-0.982 -0.84,-1.561 z"
   fill="#6092a2"
   clip-rule="evenodd"
   fill-rule="evenodd" />
	<path
   id="path190"
   d="m 385.241,814.431 c 0.436,0.325 0.537,0.983 0.84,1.44 -0.435,-0.324 -0.537,-0.983 -0.84,-1.44 z"
   fill="#6092a2"
   clip-rule="evenodd"
   fill-rule="evenodd" />
	<path
   id="path192"
   d="m 385.241,774.711 c -0.344,0.536 -0.483,1.276 -0.96,1.68 0.344,-0.536 0.483,-1.277 0.96,-1.68 z"
   fill="#6092a2"
   clip-rule="evenodd"
   fill-rule="evenodd" />
	<path
   id="path194"
   d="m 388.721,769.551 c 0.43,-0.53 0.91,-1.01 1.44,-1.439 -0.43,0.53 -0.91,1.009 -1.44,1.439 z"
   fill="#6092a2"
   clip-rule="evenodd"
   fill-rule="evenodd" />
	<path
   id="path196"
   d="m 390.401,767.871 c 0.39,-0.49 0.83,-0.931 1.32,-1.32 -0.39,0.49 -0.83,0.93 -1.32,1.32 z"
   fill="#6092a2"
   clip-rule="evenodd"
   fill-rule="evenodd" />
	<path
   id="path198"
   d="m 434.201,763.911 c 0.689,0.59 1.33,1.229 1.92,1.92 -0.69,-0.59 -1.33,-1.229 -1.92,-1.92 z"
   fill="#6092a2"
   clip-rule="evenodd"
   fill-rule="evenodd" />
	<path
   id="path200"
   d="m 436.241,795.831 c 0.55,-0.65 1.149,-1.25 1.8,-1.8 -0.55,0.651 -1.15,1.25 -1.8,1.8 z"
   fill="#6092a2"
   clip-rule="evenodd"
   fill-rule="evenodd" />
	<path
   id="path202"
   d="m 427.961,786.831 c 0.35,-0.45 0.75,-0.851 1.2,-1.2 -0.349,0.45 -0.75,0.85 -1.2,1.2 z"
   fill="#6092a2"
   clip-rule="evenodd"
   fill-rule="evenodd" />
	<path
   id="path204"
   d="m 407.801,776.871 c 0.63,-0.73 1.31,-1.41 2.04,-2.04 -0.63,0.731 -1.31,1.41 -2.04,2.04 z"
   fill="#6092a2"
   clip-rule="evenodd"
   fill-rule="evenodd" />
	<path
   id="path206"
   d="m 448.361,804.591 c 0.55,-0.649 1.149,-1.25 1.8,-1.8 -0.55,0.65 -1.15,1.25 -1.8,1.8 z"
   fill="#6092a2"
   clip-rule="evenodd"
   fill-rule="evenodd" />
	<path
   id="path208"
   d="m 426.761,720.231 c 0.422,0.378 0.618,0.981 0.84,1.56 -0.362,-0.438 -0.545,-1.055 -0.84,-1.56 z"
   fill="#6092a2"
   clip-rule="evenodd"
   fill-rule="evenodd" />
	<path
   id="path210"
   d="m 454.121,499.911 c 0.43,-0.53 0.91,-1.01 1.439,-1.44 -0.429,0.53 -0.909,1.009 -1.439,1.44 z"
   fill="#76adb9"
   clip-rule="evenodd"
   fill-rule="evenodd" />
	<path
   id="path212"
   d="m 454.241,569.271 c 0.533,0.387 1.062,0.777 1.439,1.32 -0.468,-0.451 -1.026,-0.814 -1.439,-1.32 z"
   fill="#76adb9"
   clip-rule="evenodd"
   fill-rule="evenodd" />
	<path
   id="path214"
   d="m 487.361,569.75 c 0.39,-0.49 0.829,-0.93 1.319,-1.32 -0.389,0.491 -0.828,0.931 -1.319,1.32 z"
   fill="#76adb9"
   clip-rule="evenodd"
   fill-rule="evenodd" />
	<path
   id="path216"
   d="m 567.161,543.591 c 0.08,-2.28 -0.16,-4.88 0.12,-6.96 0,2.32 0,4.64 0,6.96 -0.04,0 -0.08,0 -0.12,0 z"
   fill="#6092a2"
   clip-rule="evenodd"
   fill-rule="evenodd" />
	<path
   id="path218"
   d="m 651.281,630.951 c -0.078,0.682 0.158,1.678 -0.12,2.159 0.079,-0.681 -0.157,-1.677 0.12,-2.159 z"
   fill="#6092a2"
   clip-rule="evenodd"
   fill-rule="evenodd" />
	<path
   id="path220"
   d="m 600.521,679.071 c 0.521,-0.278 1.559,-0.042 2.279,-0.12 -0.521,0.278 -1.557,0.041 -2.279,0.12 z"
   fill="#6092a2"
   clip-rule="evenodd"
   fill-rule="evenodd" />
	<path
   id="path222"
   d="m 567.041,532.431 c 0.278,0.522 0.042,1.559 0.12,2.28 -0.278,-0.523 -0.041,-1.559 -0.12,-2.28 z"
   fill="#6092a2"
   clip-rule="evenodd"
   fill-rule="evenodd" />
	<path
   id="path224"
   d="m 616.842,593.871 c 1.2,-0.279 2.919,-0.041 4.319,-0.12 -1.2,0.279 -2.919,0.04 -4.319,0.12 z"
   fill="#6092a2"
   clip-rule="evenodd"
   fill-rule="evenodd" />
	<path
   id="path226"
   d="m 589.241,678.951 c 0.722,0.078 1.758,-0.158 2.28,0.12 -0.721,-0.079 -1.757,0.158 -2.28,-0.12 z"
   fill="#6092a2"
   clip-rule="evenodd"
   fill-rule="evenodd" />
</g>
</svg>
